<svg xmlns="http://www.w3.org/2000/svg" width="20" height="20" viewBox="0 0 20 20">
  <g id="Group_244" data-name="Group 244" transform="translate(-1637 -56)">
    <rect id="Rectangle_107" data-name="Rectangle 107" width="20" height="20" transform="translate(1637 56)" fill="none"/>
    <path id="shopping_cart_FILL1_wght700_GRAD200_opsz48" d="M8.2,23.6a1.662,1.662,0,0,1-1.238-.515,1.694,1.694,0,0,1-.5-1.225,1.662,1.662,0,0,1,.515-1.238,1.694,1.694,0,0,1,1.225-.5,1.662,1.662,0,0,1,1.238.515,1.694,1.694,0,0,1,.5,1.225A1.662,1.662,0,0,1,9.43,23.1a1.694,1.694,0,0,1-1.225.5Zm9.73,0a1.622,1.622,0,0,1-1.225-.515,1.716,1.716,0,0,1-.49-1.225,1.682,1.682,0,0,1,.5-1.238,1.746,1.746,0,0,1,2.463.012,1.716,1.716,0,0,1,.49,1.225,1.716,1.716,0,0,1-1.74,1.74ZM6.367,5.536H19.945a1.462,1.462,0,0,1,1.324.784,1.549,1.549,0,0,1,.049,1.593l-2.843,5.147a2.7,2.7,0,0,1-.76.821,1.814,1.814,0,0,1-1.078.331H9.406L8.18,16.566H19.945V18.5H7.96a1.876,1.876,0,0,1-1.716-.809A1.651,1.651,0,0,1,6.269,15.9l1.52-2.745L4.21,5.536H2.2V3.6H5.46Z" transform="translate(1635.143 52.4)" fill="#212529"/>
  </g>
</svg>
