<svg xmlns="http://www.w3.org/2000/svg" width="138.879" height="74.996" viewBox="0 0 138.879 74.996">
  <g id="fenix" transform="translate(-26.68 -26.64)">
    <g id="Group_35" data-name="Group 35" transform="translate(26.68 26.64)">
      <g id="Group_34" data-name="Group 34" transform="translate(0 0)">
        <g id="Group_27" data-name="Group 27">
          <path id="Path_36" data-name="Path 36" d="M43.092,67.542c-.465-.528-1.028-2.647-3.253-5.242-1.352-1.575-2.6-2.8-3.994-4.23-2.05-2.1-4.248-4.785-4.952-7.86a14.192,14.192,0,0,1-.181-3.635c-.016.032-.045.045-.045.1l-.4,1.426c-1.171,5.834,1.24,13.733,4.827,18.088,1.3,1.577,3.109,2.732,4.24,4.124-2.961-1.7-1.84-1.051-5.1-1.606-2.809-.478-3.139-1.66-4.169-3.154.05,4.976,3.763,9.373,8.348,10.926a14.306,14.306,0,0,0,4.872.751c-.125.138-.045.08-.276.21a9.118,9.118,0,0,1-2.8.619c-.7.048-2.653.019-2.963.09,2.573,2.392,6.585,3,9.987,2.355a1.4,1.4,0,0,1,.8-.035.43.43,0,0,1,.093.032,6.7,6.7,0,0,1-2.91,1.205c.443.6,2.039.706,2.831.68a10.486,10.486,0,0,0,3.38-.852,5.838,5.838,0,0,1-1.479,1.519c-2.23,1.662-.9-.064-2.483,2.021-.967,1.275-1.662,1.349-2.873,1.867,3.184.3,2.321.736,5.372-.868-.016.032-.042.048-.045.1a.188.188,0,0,1-.045.1l-.388.629c-1.128,1.814-1.84,5.409-1.3,7.212.289-.589.457-1.349.682-1.936a27.021,27.021,0,0,1,2.963-5.411c.4-.574.778-1.094,1.168-1.6a36.069,36.069,0,0,1,4.049-4.6c-1.136.3-2.99,2.015-4.047,2.427.576-1.633,3.5-3.951,5.257-5.037,2.544-1.572,4.416-1.922,5.581-4.886.449,2.145-.489,6.362-1.158,8.138-2.528,6.7-5.709,7.748-7.769,10.31a11.172,11.172,0,0,0-1.665,10.13c.348-.99-.236-2.021,1.147-5.138C57.914,88.543,68.87,85.879,69,76.583c.04-2.777-1.3-6.362-2.507-8.956-.223-.481-.377-.863-.619-1.309-.223-.417-.523-.757-.746-1.19,1.506-.127,1.628.786,2.528,1.245-.449-1.88-1.171-5.109-2.78-5.653.2-.273,0-.061.268-.268.04-.029.218-.143.258-.165.218-.119.382-.162.624-.316a1.947,1.947,0,0,0,.842-.982,8.462,8.462,0,0,1-4.063-.289c.037-.916.547-.866.321-2.347a1.054,1.054,0,0,0-.258.218,5.333,5.333,0,0,1-.8.757c-1.551,1.1-3.76.9-5.558,1.168a6.368,6.368,0,0,0-3.245,1.312c-1.136.664-2.73.26-3.439,1.131a3.155,3.155,0,0,1,2.371.568c1.261.682.961.55,2.419.122,4.506-1.322,7.066,2.584,6.391,5.937-.2,1.009-1.3,3.571-2.446,3.781-1.476-1.325.358-3.521-5.345-2.586-2.735.449-3.89-.582-5.337-2.565-2.538-3.481-3.93-9.333-3.709-14.06.366-7.929,4.007-13.33,2.775-19.437a13.191,13.191,0,0,0-1.235-3.447A12.851,12.851,0,0,0,44.2,26.985l-.382-.345c.491,1.739,1.37,2.464.534,5.709A45.012,45.012,0,0,1,42.7,37.041c-2.047,5.332-3.842,8.553-4.522,14.285-.138,1.16-.244,4.888.446,5.881a19.726,19.726,0,0,1,2.772,4.36,21.387,21.387,0,0,1,1.694,5.974ZM53.751,62.85c.964,1.373,2.708,1.11,4.193,1.622,2.01.693,1.731,2.175,2.233,4.081.751-2.021-.38-7.252-4.92-6.282l-1.171.332c-.335.175-.141.042-.335.247Zm-20.43,2.886a7.458,7.458,0,0,0-.871-.969c-1.3-1.442-1.341-2.233-1.986-3.962a6.537,6.537,0,0,0-3.784-3.579c.157.481.425.751.648,1.293.637,1.54.913,3.218,1.67,4.429a6.09,6.09,0,0,0,4.323,2.788Zm3.51-9.015c-.146-1.686-1.208-2.777-.672-6.455.531-3.635,2-8.019,1.989-11.11-.008-1.617-.252-5.295-1.192-6.559.465,4.692-2.135,7.684-2.939,11.71-.959,4.817-.55,8.869,2.815,12.413Z" transform="translate(-26.68 -26.64)" fill="#fff"/>
        </g>
        <g id="Group_28" data-name="Group 28" transform="translate(35.966 17.004)">
          <path id="Path_37" data-name="Path 37" d="M162.13,94.092l1.814-3.412,3.415,3.412Z" transform="translate(-162.13 -90.68)" fill="#fff"/>
        </g>
        <g id="Group_29" data-name="Group 29" transform="translate(23.149 17.004)">
          <path id="Path_38" data-name="Path 38" d="M113.86,94.092l3.412-3.412,1.816,3.412Z" transform="translate(-113.86 -90.68)" fill="#fff"/>
        </g>
        <g id="Group_30" data-name="Group 30" transform="translate(23.143 20.849)">
          <path id="Path_39" data-name="Path 39" d="M126.455,105.16H131.9l-8.606,8.707,3.165-8.707Zm-12.615,0h5.441l3.165,8.707-8.606-8.707Z" transform="translate(-113.84 -105.16)" fill="#fff"/>
        </g>
        <g id="Group_31" data-name="Group 31" transform="translate(29.211 17.002)">
          <path id="Path_40" data-name="Path 40" d="M136.69,94.085l2.961-3.415,2.961,3.415Z" transform="translate(-136.69 -90.67)" fill="#fff"/>
        </g>
        <g id="Group_32" data-name="Group 32" transform="translate(26.956 16.824)">
          <path id="Path_41" data-name="Path 41" d="M133.832,90h4.8l-1.822,3.431L133.832,90ZM128.2,90H133l-2.974,3.431L128.2,90Z" transform="translate(-128.2 -90)" fill="#fff"/>
        </g>
        <g id="Group_33" data-name="Group 33" transform="translate(29.046 20.849)">
          <path id="Path_42" data-name="Path 42" d="M136.07,105.16h6.251l-3.125,8.6Z" transform="translate(-136.07 -105.16)" fill="#fff"/>
        </g>
      </g>
    </g>
    <g id="Group_36" data-name="Group 36" transform="translate(76.087 43.464)">
      <path id="Path_43" data-name="Path 43" d="M226.943,93.9V90a10.2,10.2,0,0,0-4.015.818,10.1,10.1,0,0,0-3.266,2.217,10.333,10.333,0,0,0-2.207,3.274,10.11,10.11,0,0,0-.807,3.991h-3.9v3.9h3.9v16.7h3.85V104.2h6.45v-3.9H220.5a6.354,6.354,0,0,1,.884-3.239,6.49,6.49,0,0,1,2.315-2.292,6.331,6.331,0,0,1,3.245-.871Zm10.9,26.994a10.263,10.263,0,0,0,7.013-2.748,9.967,9.967,0,0,0,2.233-3h-4.649a6.9,6.9,0,0,1-2.074,1.383,6.5,6.5,0,0,1-2.525.518A6.46,6.46,0,0,1,233,114.869a6.31,6.31,0,0,1-1.309-2.323h16.245c.05-.3.1-.616.143-.943s.058-.659.058-1.009a10.119,10.119,0,0,0-.807-3.991,10.333,10.333,0,0,0-2.2-3.274,10.282,10.282,0,0,0-11.3-2.217,10.1,10.1,0,0,0-3.266,2.217,10.254,10.254,0,0,0-2.209,3.274,10.11,10.11,0,0,0-.807,3.991,10.246,10.246,0,0,0,.807,4.015,10.4,10.4,0,0,0,5.475,5.475,10.268,10.268,0,0,0,4.017.807Zm0-16.7a6.245,6.245,0,0,1,2.674.592,6.574,6.574,0,0,1,3.473,3.906h-12.3a6.395,6.395,0,0,1,3.441-3.906,6.382,6.382,0,0,1,2.708-.592Zm17.145,6.4h0a6.45,6.45,0,0,1,12.39-2.507,6.522,6.522,0,0,1,.51,2.507h0v10.3h3.847v-10.3h0a10.2,10.2,0,0,0-.807-4.015,10.226,10.226,0,0,0-5.473-5.473,10.3,10.3,0,0,0-11.3,2.2,10.325,10.325,0,0,0-2.209,3.274,10.217,10.217,0,0,0-.807,4.015h0v10.3h3.85v-10.3Zm19.745,10.3h3.9V100.3h-3.9v20.594Zm3.9-28.342h-3.9V96.4h3.9v-3.85Zm18.744,7.748-5.449,7.1-5.449-7.1h-4.849l7.849,10.3-7.849,10.3h4.849l5.449-7.148,5.449,7.148h4.849l-7.849-10.3,7.849-10.3Z" transform="translate(-212.75 -90)" fill="#fff"/>
      <path id="Path_44" data-name="Path 44" d="M284.216,235.264a1.447,1.447,0,0,0-1.492-1.022,1.7,1.7,0,0,0,0,3.391,1.518,1.518,0,0,0,1.46-.943h-1.718v-.669h2.5a3.175,3.175,0,0,1-.127.8v-.008a2.333,2.333,0,0,1-2.116,1.46,2.354,2.354,0,0,1,0-4.705,2.131,2.131,0,0,1,2.209,1.691h-.717Z" transform="translate(-262.466 -195.448)" fill="#fff"/>
      <path id="Path_45" data-name="Path 45" d="M302.232,237.677h2.183v.672H301.56V233.71h.672Z" transform="translate(-277.978 -195.551)" fill="#fff"/>
      <path id="Path_46" data-name="Path 46" d="M314.31,234.154a2.347,2.347,0,0,1,3.351,0,2.385,2.385,0,0,1,0,3.356,2.347,2.347,0,0,1-3.351,0,2.385,2.385,0,0,1,0-3.356Zm2.873.478a1.718,1.718,0,0,0-1.2-.5,1.671,1.671,0,0,0-1.187.5,1.692,1.692,0,0,0,0,2.4,1.671,1.671,0,0,0,1.187.5,1.707,1.707,0,0,0,1.2-2.9Z" transform="translate(-286.836 -195.36)" fill="#fff"/>
      <path id="Path_47" data-name="Path 47" d="M337.45,233.71a1.159,1.159,0,0,1,1.129.765,1.059,1.059,0,0,1-.337,1.32,1.2,1.2,0,0,1,.722,1.155,1.33,1.33,0,0,1-1.346,1.4h-2.1v-4.639h1.93Zm-1.267,1.843h1.253c.73,0,.743-1.208.013-1.208h-1.267Zm0,2.145h1.434a.742.742,0,0,0,0-1.479h-1.434Z" transform="translate(-302.921 -195.551)" fill="#fff"/>
      <path id="Path_48" data-name="Path 48" d="M353.745,236.8H352.08c-.181.425-.412.982-.558,1.367H350.8l1.864-4.705h.491l1.864,4.705H354.3Zm-1.415-.632h1.155l-.571-1.638Z" transform="translate(-314.144 -195.367)" fill="#fff"/>
      <path id="Path_49" data-name="Path 49" d="M370.062,237.677h2.183v.672H369.39V233.71h.672Z" transform="translate(-327.798 -195.551)" fill="#fff"/>
      <path id="Path_50" data-name="Path 50" d="M398.466,235.264a1.447,1.447,0,0,0-1.492-1.022,1.7,1.7,0,0,0,0,3.391,1.518,1.518,0,0,0,1.46-.943h-1.718v-.669h2.5a3.173,3.173,0,0,1-.127.8v-.008a2.333,2.333,0,0,1-2.116,1.46,2.354,2.354,0,0,1,0-4.705,2.131,2.131,0,0,1,2.209,1.691h-.717Z" transform="translate(-346.38 -195.448)" fill="#fff"/>
      <path id="Path_51" data-name="Path 51" d="M416.571,235.969h.783a.807.807,0,1,0,0-1.612h-1.03v3.97h-.664V233.68h1.694a1.439,1.439,0,0,1,1.514,1.479,1.4,1.4,0,0,1-1.2,1.421l1.466,1.745h-.868l-1.694-2.037v-.319Z" transform="translate(-361.782 -195.529)" fill="#fff"/>
      <path id="Path_52" data-name="Path 52" d="M431.55,234.154a2.347,2.347,0,0,1,3.351,0,2.385,2.385,0,0,1,0,3.356,2.347,2.347,0,0,1-3.351,0,2.4,2.4,0,0,1-.69-1.678A2.433,2.433,0,0,1,431.55,234.154Zm2.876.478a1.718,1.718,0,0,0-1.2-.5,1.666,1.666,0,0,0-1.187.5,1.692,1.692,0,0,0,0,2.4,1.671,1.671,0,0,0,1.187.5,1.707,1.707,0,0,0,1.2-2.9Z" transform="translate(-372.946 -195.36)" fill="#fff"/>
      <path id="Path_53" data-name="Path 53" d="M452.81,236.955V233.71h.677v3.253c0,.51.552.765,1.041.765s1.036-.258,1.036-.77v-3.245h.677v3.253a1.742,1.742,0,0,1-3.431-.011Z" transform="translate(-389.067 -195.551)" fill="#fff"/>
      <path id="Path_54" data-name="Path 54" d="M471.639,233.673a1.55,1.55,0,0,1,0,3.1h-1.022v1.545h-.677V233.67h1.7Zm0,2.435a.88.88,0,0,0,0-1.758h-1.022v1.758Z" transform="translate(-401.649 -195.522)" fill="#fff"/>
    </g>
  </g>
</svg>
