<svg xmlns="http://www.w3.org/2000/svg" width="34" height="34" viewBox="0 0 34 34">
  <g id="Group_218" data-name="Group 218" transform="translate(-1458 -669)">
    <circle id="Ellipse_11" data-name="Ellipse 11" cx="17" cy="17" r="17" transform="translate(1458 669)" fill="#f2f3f5"/>
    <g id="Group_217" data-name="Group 217" transform="translate(578.741 0.954)">
      <path id="shopping_cart_FILL1_wght700_GRAD200_opsz48" d="M7.66,21.786a1.511,1.511,0,0,1-1.125-.468A1.54,1.54,0,0,1,6.078,20.2a1.511,1.511,0,0,1,.468-1.125,1.54,1.54,0,0,1,1.114-.457,1.511,1.511,0,0,1,1.125.468A1.54,1.54,0,0,1,9.242,20.2a1.511,1.511,0,0,1-.468,1.125,1.54,1.54,0,0,1-1.114.457Zm8.848,0a1.475,1.475,0,0,1-1.114-.468,1.56,1.56,0,0,1-.446-1.114,1.529,1.529,0,0,1,.457-1.125,1.587,1.587,0,0,1,2.24.011A1.56,1.56,0,0,1,18.09,20.2a1.56,1.56,0,0,1-1.582,1.582ZM5.989,5.361H18.335a1.329,1.329,0,0,1,1.2.713,1.409,1.409,0,0,1,.045,1.449L17,12.2a2.457,2.457,0,0,1-.691.747,1.65,1.65,0,0,1-.981.3H8.752L7.638,15.389h10.7V17.15H7.437a1.706,1.706,0,0,1-1.56-.735A1.5,1.5,0,0,1,5.9,14.788l1.382-2.5L4.027,5.361H2.2V3.6H5.164Z" transform="translate(884.318 673.307)" fill="#212529"/>
      <circle id="Ellipse_10" data-name="Ellipse 10" cx="7.342" cy="7.342" r="7.342" transform="translate(898.158 668.158)" fill="#ff4b55"/>
      <path id="Path_275" data-name="Path 275" d="M5.008.537H8.163V-1.191H.04V.537H5.008Z" transform="translate(901.399 675.818)" fill="#fff"/>
    </g>
  </g>
</svg>
