<svg xmlns="http://www.w3.org/2000/svg" xmlns:xlink="http://www.w3.org/1999/xlink" width="24" height="24" viewBox="0 0 24 24">
  <defs>
    <clipPath id="clip-path">
      <circle id="Ellipse_5" data-name="Ellipse 5" cx="12" cy="12" r="12" transform="translate(1650 76)" fill="#fff" stroke="#707070" stroke-width="1"/>
    </clipPath>
  </defs>
  <g id="Mask_Group_3" data-name="Mask Group 3" transform="translate(-1650 -76)" clip-path="url(#clip-path)">
    <g id="_149-czech-republic" data-name="149-czech-republic" transform="translate(1643.684 71.862)">
      <path id="Path_5" data-name="Path 5" d="M.98,4.559A2.737,2.737,0,0,0,0,6.66V25.173a2.737,2.737,0,0,0,.98,2.1L18.316,15.917Z" transform="translate(0 0.221)" fill="#41479b"/>
      <path id="Path_6" data-name="Path 6" d="M.642,23.358A2.732,2.732,0,0,0,2.405,24H33.55a2.743,2.743,0,0,0,2.743-2.743V12H17.978Z" transform="translate(0.338 4.138)" fill="#ff4b55"/>
      <path id="Path_7" data-name="Path 7" d="M33.55,4.138H2.405A2.732,2.732,0,0,0,.642,4.78L17.978,16.138H36.294V6.881A2.743,2.743,0,0,0,33.55,4.138Z" transform="translate(0.338)" fill="#f5f5f5"/>
    </g>
  </g>
</svg>
